<svg xmlns="http://www.w3.org/2000/svg" viewBox="0 0 220 220" role="img" aria-label="Round ornament gold">
  <defs>
    <linearGradient id="goldRound" x1="0" y1="0" x2="1" y2="1">
      <stop offset="0%" stop-color="#825b25"/>
      <stop offset="50%" stop-color="#e2bf80"/>
      <stop offset="100%" stop-color="#93692b"/>
    </linearGradient>
  </defs>
  <g fill="none" stroke="url(#goldRound)" stroke-width="12" stroke-linecap="round" stroke-linejoin="round">
    <circle cx="110" cy="110" r="70"/>
    <path d="M110 40 C92 40, 80 56, 80 70 C80 84, 92 100, 110 100"/>
    <path d="M110 40 C128 40, 140 56, 140 70 C140 84, 128 100, 110 100"/>
    <path d="M110 180 C92 180, 80 164, 80 150 C80 136, 92 120, 110 120"/>
    <path d="M110 180 C128 180, 140 164, 140 150 C140 136, 128 120, 110 120"/>
  </g>
</svg>
